<?xml version="1.0" standalone="no"?>
<!DOCTYPE svg PUBLIC "-//W3C//DTD SVG 20010904//EN"
 "http://www.w3.org/TR/2001/REC-SVG-20010904/DTD/svg10.dtd">
<svg version="1.0" xmlns="http://www.w3.org/2000/svg"
 width="610.000000pt" height="610.000000pt" viewBox="0 0 610.000000 610.000000"
 preserveAspectRatio="xMidYMid meet">
<metadata>
Created by potrace 1.11, written by Peter Selinger 2001-2013
</metadata>
<g transform="translate(0.000000,610.000000) scale(0.100000,-0.100000)"
fill="#000000" stroke="none">
<path d="M4495 5037 c-97 -59 -129 -81 -184 -132 -178 -166 -226 -378 -121
-540 14 -22 40 -70 59 -107 61 -124 193 -218 327 -233 122 -14 320 54 468 160
124 88 244 238 307 382 62 141 78 297 39 373 -27 53 -50 53 -50 1 0 -48 -26
-157 -45 -193 -8 -14 -15 -33 -15 -41 0 -21 -71 -82 -123 -105 -65 -29 -167
-43 -234 -32 -147 24 -248 93 -319 218 -38 67 -69 189 -60 235 6 30 -13 36
-49 14z"/>
<path d="M1865 4991 c-147 -73 -268 -192 -331 -326 -62 -133 -53 -252 28 -376
21 -33 49 -81 62 -108 34 -66 108 -136 183 -173 191 -94 486 -5 703 212 122
121 183 218 236 377 35 106 38 229 6 291 -27 52 -61 59 -54 12 5 -33 -28 -120
-56 -148 -9 -10 -29 -32 -44 -50 -87 -105 -268 -140 -404 -78 -130 60 -226
224 -211 358 6 45 4 48 -16 48 -12 0 -58 -18 -102 -39z"/>
<path d="M3970 3736 c-225 -76 -326 -118 -530 -217 -187 -91 -318 -182 -374
-258 -19 -25 -48 -83 -66 -128 -18 -46 -37 -83 -41 -83 -5 0 -9 -27 -9 -60 0
-33 4 -60 9 -60 10 0 91 -114 91 -129 0 -21 48 -88 88 -122 148 -127 436 -86
708 99 153 104 245 140 277 108 47 -48 41 -356 -13 -606 -5 -25 -14 -67 -20
-95 -18 -88 -60 -217 -96 -300 -7 -16 -29 -69 -49 -117 -19 -49 -70 -154 -112
-235 -139 -271 -153 -305 -153 -379 0 -34 9 -61 33 -102 18 -32 42 -74 52 -96
11 -21 34 -46 50 -55 17 -9 32 -19 33 -23 5 -10 152 -10 152 0 0 4 32 16 72
26 85 22 208 83 304 151 154 110 381 368 505 575 99 165 187 386 226 568 9 37
22 36 83 -7 90 -63 163 -93 241 -99 60 -4 75 -1 132 26 67 31 110 75 123 125
3 16 13 31 20 34 20 7 20 199 0 218 -7 8 -16 33 -20 56 -13 80 -94 289 -113
289 -4 0 -19 18 -32 39 -22 36 -27 39 -70 38 -85 -1 -291 65 -291 93 0 19 -18
10 -24 -12 -4 -13 -18 -97 -31 -187 -23 -152 -41 -211 -65 -211 -5 0 -11 3
-14 8 -2 4 -45 9 -95 10 -50 2 -117 10 -149 17 -76 20 -257 110 -307 155 -122
108 -204 212 -246 311 -12 30 -26 59 -30 65 -16 21 -42 141 -49 229 -14 166 6
330 46 376 8 8 14 19 14 22 0 20 -95 -1 -260 -57z"/>
<path d="M1730 3780 c-14 -4 -46 -8 -72 -9 -182 -4 -803 -248 -1056 -415 -125
-82 -178 -135 -214 -213 -15 -35 -33 -63 -38 -63 -6 0 -10 -47 -10 -119 l0
-118 34 -38 c19 -20 37 -49 41 -63 10 -39 63 -108 105 -136 87 -57 214 -70
355 -37 127 31 212 70 348 163 150 101 243 133 265 91 52 -100 13 -543 -72
-818 -56 -182 -142 -379 -280 -638 -101 -189 -118 -276 -71 -352 14 -22 34
-60 46 -85 29 -62 56 -89 96 -96 18 -3 33 -10 33 -15 0 -5 20 -9 45 -9 25 0
45 4 45 8 0 5 26 13 59 19 278 52 611 336 847 724 99 163 167 325 229 552 18
61 29 68 67 38 99 -78 235 -128 317 -116 59 9 137 51 167 91 33 43 64 138 64
197 0 136 -90 389 -197 554 -51 78 -66 93 -89 87 -23 -6 -117 18 -159 40 -16
9 -35 16 -40 16 -6 0 -22 11 -37 25 -15 14 -29 25 -32 25 -2 0 -7 -24 -11 -52
-7 -53 -39 -244 -51 -305 -7 -35 -20 -44 -26 -16 -3 14 -18 17 -101 20 -91 2
-169 17 -213 41 -11 6 -40 21 -66 33 -27 12 -48 26 -48 31 0 4 -6 8 -13 8 -8
0 -22 9 -32 20 -10 11 -22 20 -27 20 -17 0 -106 97 -133 145 -16 28 -34 57
-41 65 -12 16 -43 88 -63 151 -18 58 -29 204 -21 286 10 97 44 204 77 243 26
31 20 35 -27 20z"/>
</g>
</svg>
